HIERARCHY
ROOT Hips
{
	OFFSET -0.132142257981 -21.6773503493 2.72441699205
	CHANNELS 6 Xposition Yposition Zposition Zrotation Yrotation Xrotation
	JOINT LeftHip
	{
		OFFSET 6.79628202689 -8.98805723294 -0.72256025306
		CHANNELS 3 Zrotation Yrotation Xrotation
		JOINT LeftKnee
		{
			OFFSET 3.25051746921 -36.7055409428 -0.549998784112
			CHANNELS 3 Zrotation Yrotation Xrotation
			JOINT LeftFoot
			{
				OFFSET -1.26110739445 -38.7990834176 -4.18684845697
				CHANNELS 3 Zrotation Yrotation Xrotation
				End LeftToe
				{
                                  OFFSET 2.4952685508 -5.47994673672 11.552574755
				}
			}
		}
	}
	JOINT RightHip
	{
		OFFSET -6.58220145943 -8.93696033102 -0.409788566719
		CHANNELS 3 Zrotation Yrotation Xrotation
		JOINT RightKnee
		{
			OFFSET -3.72585544607 -37.3767910816 -0.879337517811
			CHANNELS 3 Zrotation Yrotation Xrotation
			JOINT RightFoot
			{
				OFFSET 1.50305394162 -38.8717755586 -4.01156291197
				CHANNELS 3 Zrotation Yrotation Xrotation
				End RightToe
				{
                                        OFFSET -2.23171988655 -4.69949683944 11.9277872616
				}
			}
		}
	}
	JOINT Waist
	{
		OFFSET -0.246078047685 10.5295306018 -2.34308275449
		CHANNELS 3 Zrotation Yrotation Xrotation
		JOINT Spine
		{
			OFFSET 0.477982575756 13.021471085 0.0868958560507
			CHANNELS 3 Zrotation Yrotation Xrotation
                        JOINT Chest
                        {
                            OFFSET 0.162627253557 5.08627351626 2.56490525898
                            CHANNELS 3 Zrotation Yrotation Xrotation
                            JOINT Neck
                            {
                                OFFSET -0.259065814318 21.1179877915 -4.778337143
                                CHANNELS 3 Zrotation Yrotation Xrotation
                                End Head
                                {
                                        OFFSET -0.108042521031 26.3505678784 2.12168852216
                                }
                            }
                            JOINT LeftInnerShoulder
                            {
                                OFFSET 7.5807953746 11.9760394584 -3.69964864927
                                CHANNELS 3 Zrotation Yrotation Xrotation
                                JOINT LeftShoulder
                                {
                                        OFFSET 8.64169936521 2.91849231214 -0.763890051067
                                        CHANNELS 3 Zrotation Yrotation Xrotation
                                        JOINT LeftElbow
                                        {
                                                OFFSET 25.2406528861 -1.04707278777 -2.5638794465
                                                CHANNELS 3 Zrotation Yrotation Xrotation
                                                End LeftWrist
                                                {
                                                        OFFSET 23.8353810248 0.811924525055 -0.155291765314
                                                }
                                        }
                                }
                            }
                            JOINT RightInnerShoulder
                            {
                                OFFSET -7.84926654431 11.7462516395 -4.10743165833
                                CHANNELS 3 Zrotation Yrotation Xrotation
                                JOINT RightShoulder
                                {
                                        OFFSET -9.07470372474 3.12143182598 -0.882946558963
                                        CHANNELS 3 Zrotation Yrotation Xrotation
                                        JOINT RightElbow
                                        {
                                                OFFSET -24.6112365753 -1.22622944354 -1.88456897454
                                                CHANNELS 3 Zrotation Yrotation Xrotation
                                                End RightWrist
                                                {
                                                        OFFSET -24.603011204 0.836429499205 -0.541969517627
                                                }
                                        }
                                }
                            }
                        }
                }
            }
}
MOTION
Frames: 24
Frame Time: 0.0333333333333
-130.73018 101.88519 1.08260 102.76092 65.69715 33.97838 17.12650 -11.57012 -38.05329 0.56760 -16.55201 58.41991 -5.92692 11.69599 25.17203 17.75049 5.81400 -46.26982 -1.28723 -26.83963 53.93279 13.71660 -25.83087 30.52409 -14.81007 7.23428 22.39081 -3.49567 -1.02293 -0.10058 0.88123 -0.20409 8.71208 -5.21372 17.26031 -3.99943 0.31325 11.34233 -2.47710 -54.43098 -11.28364 24.11806 -18.99656 -65.80300 28.07795 4.12621 -2.86372 0.18227 71.31133 9.72116 28.97055 -8.52219 57.02562 5.30881
-128.02748 94.47353 1.37495 124.82443 76.02242 49.54613 23.61468 -2.63127 -62.92839 -0.69687 -12.34691 74.35466 -6.68960 9.69400 38.23040 8.85344 13.78182 -71.97729 -3.90008 -28.84425 61.73338 14.05281 -26.31432 46.59513 -13.89684 7.87205 30.84164 0.67772 -7.01102 -5.60496 3.35265 -3.26705 9.73344 -12.39942 15.21334 -10.74841 -1.17245 12.04282 -6.89977 -62.30000 -12.16906 31.29983 6.91265 -62.15906 -11.40821 5.46490 1.75807 1.61477 74.31940 26.85753 32.84671 -16.59312 43.31533 -20.82868
-121.93372 89.86016 1.61332 164.73871 79.40761 82.89649 25.00673 4.86146 -93.74159 -7.72315 -3.39934 104.83619 -0.07246 0.48180 38.75222 4.08719 5.79512 -95.74660 -18.46290 -35.18884 108.47005 16.25819 -23.71582 46.41827 -9.93056 12.17749 40.54309 2.32922 -8.80521 -17.86698 7.44619 -1.50829 11.91304 -19.24823 9.30249 -9.11480 1.72405 7.31957 -12.13948 -70.93232 -13.10462 37.98434 9.73358 -60.36775 -5.89767 -2.94274 8.48819 3.74214 77.47108 32.24552 27.71590 -17.60207 41.52754 -21.47190
-109.68170 89.47110 1.77689 -146.27156 74.25991 114.08671 24.34393 10.75617 -103.31159 -5.80860 1.63903 108.53583 -5.11313 0.22659 44.95144 3.63119 1.32101 -107.56894 -24.64414 -36.98676 120.97634 17.37267 -18.03516 49.49775 -6.88138 11.85185 53.99722 0.77084 -6.07156 -18.89491 7.31702 1.14521 8.33710 -25.04948 -3.45936 -10.75102 0.62915 0.01974 -11.44489 -65.84116 -21.53015 39.73877 9.94703 -66.48433 -11.92140 -0.68064 13.94240 5.09607 65.77787 34.58861 23.47863 -27.71287 57.67376 -34.68927
-100.25419 93.85608 1.90628 -123.42763 68.42648 119.08699 22.57385 21.77916 -110.90350 -2.26000 6.09011 108.53512 -7.94107 -1.40698 44.58391 3.36680 1.48118 -120.12000 -27.36279 -41.27181 121.08765 21.03601 -14.96716 49.96901 -8.33853 11.20115 64.66474 0.47900 -8.87034 -19.72877 8.04272 -1.38559 6.37283 -25.45709 -0.54059 -13.41497 -1.91113 -0.78523 -12.44449 -53.33748 -19.97613 36.54601 30.11002 -81.14665 -25.69593 0.09212 14.17594 2.62922 52.59300 40.43767 19.71541 -63.56131 78.40664 -62.24841
-94.46031 107.01364 1.98893 -90.86960 60.14719 118.97285 23.13808 14.53374 -104.74396 -0.12085 3.47555 93.54521 -10.10776 -0.34109 40.21109 3.25251 -0.76271 -112.61682 -20.23473 -41.75995 98.19010 15.09102 -14.86675 42.94199 -5.39790 9.57146 74.20273 -1.94315 -4.65688 -14.67790 6.16063 -0.95248 6.07594 -20.28049 -4.73283 -4.93297 0.08470 -7.75283 -10.68630 -52.35789 -38.17733 31.63892 21.42493 -73.71781 -21.27666 -0.84263 12.20324 0.03455 46.50918 32.43161 14.46818 -74.77521 63.41089 -73.43151
-94.34444 117.95792 2.07267 -75.53206 60.81758 117.48227 23.63086 14.23482 -102.89419 4.12248 1.51657 75.29763 -11.96889 2.11730 40.14071 2.89759 0.35167 -108.29580 -13.51790 -42.37026 73.57456 17.20641 -17.97086 42.83639 -5.15083 10.22777 74.90939 -2.41599 -5.88482 -17.28843 7.75814 -0.11724 7.16042 -25.42713 -7.03640 -12.22946 4.83208 -9.46689 -13.97203 -62.91289 -41.90622 37.15990 15.69633 -59.32394 -19.16968 -5.78628 13.98719 -2.30091 49.35093 39.90454 9.63369 -51.95117 40.94849 -61.08758
-105.87731 122.29783 2.08106 -57.77551 67.99712 108.58630 26.86439 13.02400 -98.65698 2.39305 -1.25369 75.91972 -10.60293 3.03258 33.74785 1.35975 0.25871 -103.64125 -11.34747 -40.54224 74.73651 13.20924 -13.92624 34.20363 -3.15544 10.28544 78.69968 -2.40320 -5.39021 -9.61599 9.31751 0.30884 4.31118 -24.14738 -3.71113 -12.16973 2.08725 -22.48154 -13.34083 -48.36208 -35.46282 28.94079 22.86363 -58.13308 -34.58667 -1.72004 25.86973 -1.81934 37.54193 35.95934 3.73459 -47.64960 41.93357 -59.78796
-116.43611 128.86986 2.03995 -59.17495 71.30477 84.84606 29.36596 12.96180 -94.33530 -0.34983 -2.08926 82.95948 -8.30780 1.64968 11.32459 1.09130 3.14293 -97.97639 -7.80741 -35.23770 75.16459 11.47734 -13.29017 15.25291 -4.55053 10.92724 79.46304 -3.89076 -3.86842 -5.93299 7.51637 0.18207 1.26158 -18.75116 3.66693 -27.93439 -6.21114 -27.34453 -9.26147 -41.47925 -36.24480 22.82415 13.67540 -47.40369 -30.64515 7.92729 30.67018 -3.63259 33.36302 43.16968 5.36200 -36.92229 31.14353 -52.20547
-134.74790 127.70518 1.92052 -70.73292 67.96588 58.10801 31.88765 14.29755 -93.41189 -3.84926 -2.76680 92.32196 -6.01629 2.90587 9.43656 1.54198 7.78906 -102.87166 -13.33429 -35.28281 93.14200 16.30500 -20.50661 12.43049 -6.57994 13.39109 71.66313 -6.69250 -4.87900 -2.98988 5.23649 0.94191 3.02803 -24.88730 7.66203 -33.23260 -12.04005 -27.81283 -8.39439 -42.55509 -30.32000 25.50333 27.64214 -50.63195 -46.51094 11.77552 35.68003 2.18696 28.39683 44.13133 2.81365 -36.41795 34.76253 -55.51158
-161.50393 120.26927 1.84096 -21.88601 66.29101 78.28549 23.18417 -6.23896 -81.92392 -2.00724 -12.07966 69.46833 -7.93323 -1.46666 11.78924 2.41238 -3.78736 -88.83489 -7.62512 -33.81350 68.94926 13.69871 -18.01474 10.20337 -4.29419 6.53824 78.30769 -6.92247 -3.62260 -3.52875 3.66477 -1.09821 3.88097 -18.07050 -0.20474 -30.56596 1.76506 -31.34744 -5.42046 -53.16818 -45.24758 19.63657 15.95867 -45.01888 -34.53949 -5.12555 29.90263 -7.78053 49.51948 37.58441 7.55705 -46.89884 36.12545 -60.32125
-182.91022 101.62595 1.71350 -22.22113 68.49764 63.97393 23.95166 -7.15167 -78.07906 -1.09328 -18.73406 62.65046 -8.15695 0.84461 11.48479 4.41625 -0.58175 -87.18902 -6.36844 -36.59458 64.07281 18.77505 -21.28855 8.87462 -5.66311 8.98396 67.74298 -4.67377 -4.26101 -4.83823 3.64681 -0.29026 6.66713 -21.61134 2.61566 -26.25964 10.15574 -24.18371 -9.90539 -73.38599 -41.58883 33.82887 20.45036 -46.13142 -39.21185 -5.52717 24.52023 -5.16241 64.02569 39.33041 16.64809 -55.43418 38.17171 -67.39399
-206.15446 71.14535 1.56300 -12.95862 70.80023 54.56199 21.84540 -5.78793 -69.11022 2.74599 -14.75688 50.84957 -5.95866 5.38384 4.54053 5.23964 3.84577 -78.36296 -2.28318 -31.77425 50.79036 17.15666 -19.83191 2.83030 -7.83911 7.05608 59.92146 -5.65308 -5.71820 -4.71941 3.87269 -2.26116 7.91868 -18.44385 2.17036 -16.50365 11.52967 -20.43474 -8.20696 -64.49395 -35.17588 32.47516 21.43637 -71.84486 -23.50663 -8.89223 20.73999 -5.38702 67.14957 29.00855 24.82717 -58.88118 69.21683 -57.80058
-224.93262 35.90692 1.43293 -7.52582 75.38305 44.64503 19.75589 -3.84667 -58.17844 6.96426 -14.20261 28.51477 -9.00350 6.50007 10.13420 8.71918 8.15998 -65.55211 1.31442 -26.07689 27.72398 18.69925 -21.70375 8.38013 -10.65669 5.38913 50.20868 -4.50374 -10.07379 -3.47705 4.13954 -4.41674 9.87148 -14.00467 -1.37744 -6.36379 20.00952 -12.12667 -9.50761 -68.84171 -34.95205 32.36509 74.58404 -72.51170 -76.21118 -20.44548 13.67197 -9.02258 72.69470 33.09805 24.86006 -74.11743 65.06629 -72.02967
-237.04639 5.21685 1.32920 3.37227 76.82999 42.80691 16.44742 -3.84773 -45.88097 6.93013 -10.47963 24.09076 -6.00755 6.95491 7.47043 10.68879 6.09962 -57.00483 3.17648 -23.18568 28.30421 15.55445 -20.20037 6.49762 -10.19968 2.02794 45.70610 -5.52535 -9.45520 -4.35214 2.90613 -5.04595 9.18453 -6.69439 -0.22793 -7.19868 17.19414 -11.26087 -12.24808 -51.76056 -43.99946 16.45029 83.12606 -64.49523 -74.59229 -19.96126 9.04758 -13.10930 51.33181 36.19164 10.40030 -75.72838 62.03673 -62.42782
-246.58643 -12.94829 1.19992 -2.85289 73.63460 28.43210 17.05195 -5.74976 -50.85968 -1.03495 -14.47200 51.85798 -1.85286 8.17643 -2.74684 10.06707 7.76365 -62.86005 1.80240 -24.52355 49.67684 16.03323 -22.61932 -1.90739 -9.27057 2.96500 47.46100 -4.42550 -10.32728 -5.20391 2.47800 -4.75832 7.86769 -9.73693 -0.92940 -13.42352 18.41042 -14.04239 -17.76182 -27.03551 -39.13185 -3.50932 60.82832 -45.98787 -56.71326 -19.28317 15.25173 -16.99318 24.08919 38.94651 -9.51792 -68.99599 49.36185 -56.71508
-257.17011 -14.40543 0.99450 7.05100 75.43701 33.93914 18.31826 -2.34881 -63.07335 -2.90252 -6.84875 69.58299 -1.33641 11.92921 -7.32451 5.24224 9.50295 -74.56131 1.54630 -20.14788 63.69899 14.52029 -23.21615 -8.50641 -7.79359 2.42833 56.44029 -1.26829 -10.06686 -8.43631 2.80622 -4.56540 6.15554 -8.93177 1.70343 -25.92637 19.73700 -19.87587 -20.72189 -3.97845 -36.07739 -17.84386 51.57287 -39.67075 -65.93596 -19.59449 18.90686 -19.31825 4.04628 35.00886 -24.90025 -63.48699 34.17333 -69.90217
-261.87932 -11.30063 0.85489 3.63221 73.93229 34.26801 17.85258 -0.51525 -64.91635 0.25928 -5.85930 65.27145 -0.87354 13.52304 -5.82539 3.90455 12.24912 -78.77024 1.16645 -17.66756 60.21954 16.48384 -21.83585 -6.32143 -8.09169 3.72266 54.47441 0.01791 -10.06867 -11.59421 3.30944 -3.75645 6.99420 -14.13259 6.22102 -32.49336 20.16961 -16.26317 -21.56833 -9.54539 -35.95114 -14.34836 56.88849 -39.98211 -71.94463 -18.21833 17.19951 -17.29387 14.99895 39.57162 -18.12486 -73.98256 34.43353 -79.15255
-266.09802 -6.04720 0.77008 3.49213 71.38008 34.58239 17.40573 -0.10253 -59.37110 2.43905 -5.57065 53.28873 -1.00942 11.83469 1.27454 7.08932 9.69334 -69.02505 2.84970 -19.31029 45.71010 18.10339 -23.09074 -0.69575 -8.18857 4.45136 47.79571 -2.16358 -9.92740 -9.20385 2.48966 -2.91637 7.93332 -15.59843 5.87033 -31.41638 15.10723 -15.94789 -19.96235 -16.92068 -37.72158 -8.71973 54.34870 -39.95949 -73.42621 -14.93787 18.93993 -13.47049 20.03482 40.43455 -12.65616 -67.87400 41.15900 -75.94124
-268.46888 -2.15239 0.72409 10.63170 70.94036 44.33161 16.67622 -0.41803 -56.77077 6.23962 -2.39212 39.79527 -2.28051 11.92838 2.30323 7.98377 11.36363 -64.66258 1.34069 -17.29995 33.38752 18.26085 -21.64899 4.92235 -9.75913 4.84214 43.70208 -1.11895 -9.34612 -9.94506 3.06389 -3.66055 6.91065 -17.77932 11.03995 -32.51150 14.14130 -10.99393 -16.10114 -32.60224 -34.78741 3.14255 54.80993 -49.25511 -66.15430 -9.52062 13.30455 -11.74851 47.14685 39.16767 9.10345 -76.58830 46.66898 -76.61553
-273.33219 9.87517 0.65546 16.67398 68.81376 50.47413 16.03697 -4.18520 -51.51570 7.89124 -6.09099 32.59992 -2.03217 12.10760 1.84239 10.67971 10.94254 -59.15114 1.71002 -17.36687 25.98690 18.62149 -23.37779 4.45014 -10.83558 5.56928 38.92185 -1.86210 -7.67806 -8.10404 3.03684 -2.84727 7.27984 -19.68170 14.54189 -35.06154 9.14884 -9.14723 -13.11078 -40.68925 -31.77709 11.83863 39.95781 -55.55196 -56.96578 -4.66297 11.64338 -9.00527 58.38661 34.75330 20.60993 -71.30649 53.24264 -73.28729
-274.71874 10.36415 0.59591 22.39397 70.42507 51.06130 15.25147 -5.72737 -47.92404 7.74979 -9.28835 32.15187 -2.51990 11.17487 3.40097 11.54386 9.50073 -52.57400 1.72546 -19.11406 27.42427 14.11385 -24.70534 0.23250 -9.54710 5.13753 36.46303 -0.56246 -7.87318 -5.66575 3.59832 -2.80989 7.65571 -17.50050 15.39402 -32.80711 1.64306 -10.88915 -10.68229 -46.24919 -32.74611 16.05554 24.12795 -48.62830 -40.72297 4.04481 15.41450 -5.09325 58.01232 38.32643 23.57530 -41.77600 50.48336 -44.97224
-275.01610 11.56880 0.51786 23.05155 70.43515 47.46885 12.55833 -6.83572 -42.49866 7.12435 -9.58388 34.91929 -0.52543 11.80964 -0.05649 12.49751 8.65296 -45.07522 1.29393 -15.84107 26.26892 11.41586 -22.20580 -4.86050 -7.88604 4.19386 34.05249 -0.66681 -6.93110 -4.64331 3.07488 -2.19451 8.14616 -16.66375 12.48661 -29.16287 -0.17017 -10.39790 -7.63812 -57.08097 -30.96981 19.44236 15.27741 -42.46597 -23.83686 6.01973 14.64999 -2.90281 65.22925 32.19134 25.49566 -28.17498 46.44994 -25.36770
-276.10040 14.91958 0.45429 26.22615 69.68678 48.47624 11.26570 -8.55696 -36.90717 7.02244 -13.47963 30.27692 0.21493 12.47425 -1.97879 13.16441 7.63926 -39.08495 -0.49664 -13.65010 26.78817 11.48682 -22.14284 -7.79274 -8.26350 4.19628 29.71757 -1.70298 -6.11319 -3.42045 2.44583 -1.92594 8.26944 -16.15513 4.24213 -26.41384 -1.14157 -7.18477 -5.36261 -64.22311 -24.81466 24.21049 8.84828 -46.65663 -9.25544 6.84810 12.81539 -2.03434 70.20427 24.57314 27.01676 -18.76460 41.62211 -11.48371
